<svg width="24" height="24" viewBox="0 0 24 24" fill="none" xmlns="http://www.w3.org/2000/svg">
<path d="M19.2806 18.424C18.9328 19.2275 18.5211 19.9672 18.0441 20.6472C17.3938 21.5743 16.8614 22.216 16.4511 22.5724C15.8151 23.1573 15.1336 23.4568 14.4039 23.4739C13.88 23.4739 13.2483 23.3248 12.5129 23.0224C11.775 22.7214 11.097 22.5724 10.477 22.5724C9.82677 22.5724 9.12941 22.7214 8.38349 23.0224C7.63644 23.3248 7.03463 23.4824 6.5745 23.498C5.87472 23.5278 5.17722 23.2197 4.48099 22.5724C4.03662 22.1848 3.48081 21.5204 2.81496 20.5791C2.10057 19.5739 1.51323 18.4084 1.0531 17.0795C0.560323 15.6442 0.313293 14.2543 0.313293 12.9087C0.313293 11.3673 0.646357 10.0379 1.31348 8.92385C1.83778 8.029 2.53528 7.32312 3.40826 6.80493C4.28124 6.28674 5.2245 6.02267 6.2403 6.00578C6.79611 6.00578 7.52499 6.1777 8.43077 6.51559C9.33399 6.85462 9.91394 7.02655 10.1682 7.02655C10.3583 7.02655 11.0026 6.82552 12.0948 6.42473C13.1276 6.05305 13.9993 5.89916 14.7134 5.95978C16.6485 6.11595 18.1023 6.87876 19.0691 8.25303C17.3385 9.30163 16.4824 10.7703 16.4994 12.6544C16.515 14.122 17.0474 15.3432 18.0937 16.3129C18.5679 16.7629 19.0975 17.1107 19.6867 17.3578C19.5589 17.7283 19.424 18.0832 19.2806 18.424ZM14.8426 0.960131C14.8426 2.11039 14.4224 3.18439 13.5847 4.17847C12.5739 5.36023 11.3513 6.04311 10.0254 5.93536C10.0085 5.79736 9.9987 5.65213 9.9987 5.49951C9.9987 4.39526 10.4794 3.21349 11.3331 2.24724C11.7593 1.75801 12.3013 1.35122 12.9586 1.02671C13.6146 0.707053 14.235 0.530273 14.8185 0.5C14.8355 0.653772 14.8426 0.807554 14.8426 0.960116V0.960131Z" fill="white"/>
</svg>
