<svg width="20" height="18" viewBox="0 0 20 18" fill="none" xmlns="http://www.w3.org/2000/svg">
<path d="M10 13.5186C11.933 13.5186 13.5 11.9516 13.5 10.0186C13.5 8.08556 11.933 6.51855 10 6.51855C8.067 6.51855 6.5 8.08556 6.5 10.0186C6.5 11.9516 8.067 13.5186 10 13.5186Z" fill="url(#paint0_linear_462_364)"/>
<path d="M18 6V14C18 14.2113 17.9575 14.4113 17.8975 14.6025C17.7012 15.2175 17.2188 15.7 16.6038 15.8962C16.4125 15.9575 16.2125 15.9988 16.0012 15.9988H6.25L8.25 17.9988H16C16.5525 17.9988 17.0788 17.8862 17.5575 17.685C18.0363 17.4825 18.4675 17.19 18.8288 16.8275C19.01 16.6462 19.1737 16.4488 19.3175 16.235C19.605 15.81 19.8125 15.325 19.9188 14.805C19.9725 14.545 20 14.275 20 13.9988V7.5L19.25 5.125L17.8975 5.3975C17.9575 5.58875 18 5.78875 18 6Z" fill="url(#paint1_linear_462_364)"/>
<path d="M2 6C2 5.78875 2.0425 5.58875 2.1025 5.3975C2.29875 4.7825 2.78125 4.3 3.39625 4.10375C3.58875 4.0425 3.78875 4 4 4H16C16.2113 4 16.4113 4.0425 16.6025 4.1025L16.625 2.625L14.5 2L12.5 0H7.5L5.5 2H4C1.79125 2 0 3.79125 0 6V10L2 12V6Z" fill="url(#paint2_linear_462_364)"/>
<path d="M16 2H14.5L16.6038 4.10375C16.7575 4.1525 16.9025 4.22 17.0375 4.3025C17.3075 4.4675 17.5337 4.69375 17.6987 4.96375C17.7812 5.09875 17.8487 5.24375 17.8975 5.3975L20 7.5V6C20 3.79125 18.2087 2 16 2Z" fill="url(#paint3_linear_462_364)"/>
<path d="M4 18H8.98625L6.98625 16H4C2.8975 16 2 15.1025 2 14V11.0138L0 9.01375V14C0 16.2087 1.79125 18 4 18Z" fill="url(#paint4_linear_462_364)"/>
<defs>
<linearGradient id="paint0_linear_462_364" x1="6.5" y1="6.51855" x2="13.5" y2="13.5186" gradientUnits="userSpaceOnUse">
<stop offset="0.08" stop-color="#992870"/>
<stop offset="0.58" stop-color="#7136B8"/>
<stop offset="1" stop-color="#4943FF"/>
</linearGradient>
<linearGradient id="paint1_linear_462_364" x1="0" y1="0" x2="17.9006" y2="19.8895" gradientUnits="userSpaceOnUse">
<stop offset="0.08" stop-color="#992870"/>
<stop offset="0.58" stop-color="#7136B8"/>
<stop offset="1" stop-color="#4943FF"/>
</linearGradient>
<linearGradient id="paint2_linear_462_364" x1="0" y1="0" x2="17.9006" y2="19.8895" gradientUnits="userSpaceOnUse">
<stop offset="0.08" stop-color="#992870"/>
<stop offset="0.58" stop-color="#7136B8"/>
<stop offset="1" stop-color="#4943FF"/>
</linearGradient>
<linearGradient id="paint3_linear_462_364" x1="0" y1="0" x2="17.9006" y2="19.8895" gradientUnits="userSpaceOnUse">
<stop offset="0.08" stop-color="#992870"/>
<stop offset="0.58" stop-color="#7136B8"/>
<stop offset="1" stop-color="#4943FF"/>
</linearGradient>
<linearGradient id="paint4_linear_462_364" x1="0" y1="0" x2="17.9006" y2="19.8895" gradientUnits="userSpaceOnUse">
<stop offset="0.08" stop-color="#992870"/>
<stop offset="0.58" stop-color="#7136B8"/>
<stop offset="1" stop-color="#4943FF"/>
</linearGradient>
</defs>
</svg>
