<svg width="15" height="15" viewBox="0 0 15 15" fill="none" xmlns="http://www.w3.org/2000/svg">
<path d="M10.4172 9.16719H9.75885L9.52552 8.94219C10.5255 7.77552 11.0422 6.18385 10.7589 4.49219C10.3672 2.17552 8.43385 0.325521 6.10052 0.042188C2.57552 -0.391145 -0.391145 2.57552 0.042188 6.10052C0.325521 8.43385 2.17552 10.3672 4.49219 10.7589C6.18385 11.0422 7.77552 10.5255 8.94219 9.52552L9.16719 9.75885V10.4172L12.7089 13.9589C13.0505 14.3005 13.6089 14.3005 13.9505 13.9589C14.2922 13.6172 14.2922 13.0589 13.9505 12.7172L10.4172 9.16719ZM5.41719 9.16719C3.34219 9.16719 1.66719 7.49219 1.66719 5.41719C1.66719 3.34219 3.34219 1.66719 5.41719 1.66719C7.49219 1.66719 9.16719 3.34219 9.16719 5.41719C9.16719 7.49219 7.49219 9.16719 5.41719 9.16719Z" fill="#9AA0A6"/>
</svg>
