<svg width="184" height="184" viewBox="0 0 184 184" fill="none" xmlns="http://www.w3.org/2000/svg">
<path d="M37.8905 157.167C34.8839 157.167 32.2894 156.076 30.1069 153.893C27.9245 151.711 26.8333 149.116 26.8333 146.11V37.8909C26.8333 34.8843 27.9245 32.2898 30.1069 30.1073C32.2894 27.9249 34.8839 26.8337 37.8905 26.8337H75.6929V35.5334H37.8905C37.3014 35.5334 36.7609 35.7787 36.269 36.2694C35.7783 36.7613 35.533 37.3019 35.533 37.8909V146.11C35.533 146.699 35.7783 147.239 36.269 147.731C36.7609 148.222 37.3014 148.467 37.8905 148.467H146.109C146.698 148.467 147.239 148.222 147.731 147.731C148.222 147.239 148.467 146.699 148.467 146.11V96.9683L157.167 105.668V146.11C157.167 149.116 156.075 151.711 153.893 153.893C151.71 156.076 149.116 157.167 146.109 157.167H37.8905ZM51.3225 128.844L69.9142 104.917L85.6749 125.306L108.6 95.8931L133.385 128.844H51.3225ZM166.012 96.7038L140.816 71.5073C138.231 73.3448 135.715 74.6545 133.268 75.4365C130.819 76.2172 127.93 76.6076 124.599 76.6076C116.473 76.6076 109.655 73.8508 104.144 68.3372C98.6329 62.8248 95.8773 56.0111 95.8773 47.8959C95.8773 39.782 98.6367 32.9651 104.155 27.4451C109.675 21.9264 116.477 19.167 124.56 19.167C132.645 19.167 139.447 21.9244 144.967 27.4393C150.486 32.9542 153.245 39.7705 153.245 47.8882C153.245 51.2194 152.758 54.3717 151.785 57.3451C150.812 60.3185 149.432 63.1226 147.643 65.7573L172.264 90.3788L166.012 96.7038ZM124.56 67.9097C130.315 67.9097 135.085 66.0052 138.87 62.1962C142.654 58.3871 144.545 53.605 144.545 47.8499C144.545 42.0961 142.657 37.3268 138.882 33.542C135.106 29.7585 130.32 27.8667 124.524 27.8667C118.794 27.8667 114.037 29.7547 110.252 33.5305C106.469 37.3063 104.577 42.0922 104.577 47.8882C104.577 53.6178 106.469 58.3871 110.252 62.1962C114.037 66.0052 118.806 67.9097 124.56 67.9097Z" fill="black"/>
</svg>
