<svg width="519" height="226" viewBox="0 0 519 226" fill="none" xmlns="http://www.w3.org/2000/svg">
<path d="M16.6549 122.872L14.6985 123.287L15.5294 127.2L17.4858 126.784L16.6549 122.872ZM91.7646 184.627L92.454 182.749H92.454L91.7646 184.627ZM194.609 140.034L192.867 139.052L192.867 139.052L194.609 140.034ZM238.39 105.337L237.999 107.298L238.39 105.337ZM263.133 124.975L261.575 126.228L261.575 126.228L263.133 124.975ZM323.808 166.954L324.186 164.99L324.185 164.99L323.808 166.954ZM397.266 134.588L395.354 134.002V134.002L397.266 134.588ZM372.442 78.6038L372.846 76.6451L372.846 76.6451L372.442 78.6038ZM299.245 96.6598L299.619 98.6244L299.245 96.6598ZM249.435 89.4294L248.233 91.0283L248.233 91.0283L249.435 89.4294ZM220.508 38.2135L218.764 39.192L218.764 39.1921L220.508 38.2135ZM207.49 22.9794L208.715 21.3981L208.715 21.398L207.49 22.9794ZM197.066 16.5758L197.943 14.7783L197.942 14.7781L197.066 16.5758ZM186.688 12.507L187.203 10.5744L187.203 10.5744L186.688 12.507ZM153.12 16.3025L154.014 18.0919L154.014 18.0919L153.12 16.3025ZM139.229 27.2751L137.675 26.0168L137.674 26.0169L139.229 27.2751ZM131.538 44.2656L129.569 43.9177V43.9177L131.538 44.2656ZM133.032 66.2549L131.126 66.8615L131.127 66.8615L133.032 66.2549ZM144.073 82.6554L142.783 84.1839L142.784 84.184L144.073 82.6554ZM210.017 85.5661L210.819 87.3983L210.819 87.3983L210.017 85.5661ZM302.946 69.4187L303.663 67.5517L303.663 67.5517L302.946 69.4187ZM354.701 104.702L354.032 106.587L354.032 106.587L354.701 104.702ZM400.103 95.0154L398.584 93.714L398.584 93.714L400.103 95.0154ZM404.259 64.0747C403.189 63.7994 402.099 64.4434 401.824 65.5131L397.337 82.9451C397.062 84.0148 397.706 85.1051 398.776 85.3804C399.845 85.6557 400.936 85.0117 401.211 83.942L405.199 68.4469L420.694 72.4347C421.764 72.71 422.854 72.066 423.129 70.9963C423.405 69.9265 422.761 68.8362 421.691 68.5609L404.259 64.0747ZM17.4858 126.784C29.9877 124.129 37.9049 125.6 43.5067 129.144C49.191 132.739 52.8633 138.685 56.4065 145.861C63.3676 159.96 69.5644 178.605 91.0752 186.504L92.454 182.749C72.7935 175.53 67.272 158.833 59.9932 144.091C56.4164 136.846 52.3384 129.997 45.6451 125.763C38.8693 121.477 29.7818 120.084 16.6549 122.872L17.4858 126.784ZM91.0751 186.504C112.867 194.506 133.617 193.119 151.736 184.677C169.819 176.251 185.165 160.857 196.351 141.016L192.867 139.052C182.001 158.324 167.223 173.048 150.047 181.051C132.906 189.038 113.26 190.39 92.454 182.749L91.0751 186.504ZM196.351 141.016C200.958 132.847 206.47 123.35 213.391 116.403C220.271 109.497 228.279 105.36 237.999 107.298L238.782 103.376C227.254 101.077 217.961 106.148 210.557 113.58C203.195 120.969 197.441 130.94 192.867 139.052L196.351 141.016ZM237.999 107.298C242.922 108.28 247.134 110.891 250.98 114.354C254.847 117.836 258.235 122.073 261.575 126.228L264.692 123.722C261.398 119.625 257.807 115.119 253.657 111.382C249.487 107.627 244.644 104.545 238.781 103.376L237.999 107.298ZM261.575 126.228C276.271 144.51 295.146 163.477 323.43 168.918L324.185 164.99C297.354 159.828 279.246 141.826 264.692 123.722L261.575 126.228ZM323.43 168.918C340.349 172.175 357.255 170.156 370.936 164.153C384.605 158.155 395.217 148.094 399.178 135.174L395.354 134.002C391.824 145.516 382.247 154.822 369.329 160.49C356.424 166.153 340.346 168.101 324.186 164.99L323.43 168.918ZM399.178 135.174C403.068 122.49 402.841 109.245 398.47 98.4533C394.078 87.6106 385.488 79.2556 372.846 76.6451L372.037 80.5625C383.21 82.8697 390.808 90.1924 394.763 99.9551C398.738 109.769 399.017 122.057 395.354 134.002L399.178 135.174ZM372.846 76.6451C356.399 73.2489 343.73 76.7487 332.233 81.5921C329.372 82.7974 326.578 84.0883 323.83 85.3711C321.071 86.6585 318.366 87.9338 315.636 89.1336C310.18 91.5305 304.719 93.5802 298.87 94.6951L299.619 98.6244C305.896 97.4279 311.672 95.2439 317.245 92.7957C320.028 91.5729 322.785 90.2728 325.521 88.9958C328.267 87.7142 331.001 86.4516 333.786 85.2783C344.873 80.6075 356.677 77.3908 372.037 80.5625L372.846 76.6451ZM298.87 94.6951C282.268 97.8598 264.35 98.1353 250.636 87.8306L248.233 91.0283C263.359 102.394 282.753 101.839 299.619 98.6244L298.87 94.6951ZM250.637 87.8306C242.604 81.7942 238.006 73.7563 234.168 64.8521C230.396 56.1015 227.236 46.1168 222.253 37.2349L218.764 39.1921C223.628 47.8621 226.487 57.1393 230.495 66.4355C234.436 75.5782 239.377 84.3722 248.233 91.0283L250.637 87.8306ZM222.253 37.235C218.798 31.0761 214.245 25.6802 208.715 21.3981L206.266 24.5607C211.347 28.4954 215.556 33.4723 218.764 39.192L222.253 37.235ZM208.715 21.398C205.345 18.7891 201.702 16.6124 197.943 14.7783L196.189 18.3732C199.745 20.1083 203.147 22.1461 206.266 24.5607L208.715 21.398ZM197.942 14.7781C194.555 13.1264 190.96 11.5753 187.203 10.5744L186.173 14.4396C189.569 15.3442 192.899 16.7692 196.189 18.3734L197.942 14.7781ZM187.203 10.5744C175.635 7.49351 162.86 9.20546 152.227 14.513L154.014 18.0919C163.86 13.1771 175.636 11.6332 186.174 14.4397L187.203 10.5744ZM152.227 14.513C146.728 17.2579 141.657 21.0963 137.675 26.0168L140.784 28.5334C144.363 24.1113 148.961 20.6142 154.014 18.0919L152.227 14.513ZM137.674 26.0169C133.519 31.1511 130.731 37.3358 129.569 43.9177L133.508 44.6135C134.555 38.6834 137.065 33.1286 140.784 28.5333L137.674 26.0169ZM129.569 43.9177C128.24 51.4381 128.82 59.6148 131.126 66.8615L134.938 65.6484C132.825 59.0081 132.294 51.4862 133.508 44.6134L129.569 43.9177ZM131.127 66.8615C133.306 73.7094 137.437 79.6717 142.783 84.1839L145.363 81.127C140.564 77.0763 136.878 71.7421 134.938 65.6483L131.127 66.8615ZM142.784 84.184C162.64 100.938 189.673 96.6529 210.819 87.3983L209.216 83.7338C188.466 92.8148 163.406 96.3501 145.363 81.1268L142.784 84.184ZM210.819 87.3983C225.16 81.1214 240.395 74.1622 255.948 70.2354C271.464 66.3176 287.101 65.4746 302.228 71.2856L303.663 67.5517C287.497 61.3417 270.952 62.3214 254.969 66.3571C239.021 70.3837 223.438 77.5088 209.215 83.7339L210.819 87.3983ZM302.228 71.2856C311.719 74.9317 319.354 81.7003 327.363 88.7298C335.273 95.672 343.544 102.863 354.032 106.587L355.371 102.818C345.716 99.3898 337.992 92.7364 330.002 85.7234C322.111 78.7977 313.94 71.5003 303.663 67.5517L302.228 71.2856ZM354.032 106.587C369.913 112.225 389.636 110.302 401.621 96.3169L398.584 93.714C387.995 106.069 370.213 108.087 355.371 102.818L354.032 106.587ZM401.621 96.3169C408.741 88.0093 411.263 74.7811 405.483 64.9945L402.038 67.0287C406.775 75.0478 404.83 86.4262 398.584 93.714L401.621 96.3169Z" fill="#1E1E48"/>
<path d="M15.4349 143.8L13.4391 143.929L13.6977 147.921L15.6935 147.792L15.4349 143.8ZM60.2458 190.452L60.552 188.476L60.5518 188.476L60.2458 190.452ZM89.0482 156.839L91.0439 156.708V156.708L89.0482 156.839ZM62.2818 79.2133L64.2727 79.0225V79.0225L62.2818 79.2133ZM108.067 13.011L108.464 14.9713L108.464 14.9713L108.067 13.011ZM193.893 95.8519L191.914 96.1377V96.1377L193.893 95.8519ZM224.776 179.606L223.385 181.043L223.385 181.043L224.776 179.606ZM269.037 192.736L269.137 194.734H269.137L269.037 192.736ZM366.012 125.477L366.716 127.349L366.716 127.349L366.012 125.477ZM383.502 192.606L383.688 194.597L383.688 194.597L383.502 192.606ZM307.009 122.164L305.856 123.798L305.856 123.798L307.009 122.164ZM254.853 133.269L253.246 132.078L253.246 132.078L254.853 133.269ZM188.663 178.568L188.685 180.568H188.685L188.663 178.568ZM133.415 113.213C132.72 112.355 131.461 112.222 130.602 112.917L116.609 124.239C115.751 124.934 115.618 126.193 116.313 127.052C117.007 127.911 118.267 128.044 119.125 127.349L131.563 117.284L141.628 129.722C142.323 130.581 143.582 130.714 144.441 130.019C145.299 129.324 145.432 128.065 144.738 127.206L133.415 113.213ZM15.6935 147.792C21.5731 147.411 25.4241 149.457 28.4272 152.824C31.5551 156.331 33.7695 161.271 36.1203 166.766C38.4149 172.129 40.8305 177.995 44.3687 182.735C47.9726 187.562 52.8102 191.325 59.9398 192.429L60.5518 188.476C54.6802 187.567 50.7003 184.529 47.574 180.342C44.3821 176.066 42.155 170.702 39.7978 165.192C37.4968 159.814 35.0504 154.24 31.4122 150.161C27.649 145.943 22.6285 143.334 15.4349 143.8L15.6935 147.792ZM59.9396 192.429C68.0585 193.686 76.3892 192.008 82.4546 186.164C88.5229 180.318 91.9581 170.656 91.0439 156.708L87.0525 156.97C87.9189 170.189 84.6226 178.521 79.6793 183.284C74.7332 188.049 67.7723 189.594 60.552 188.476L59.9396 192.429ZM91.0439 156.708C90.1584 143.201 84.0142 131.472 77.9698 119.445C71.8765 107.321 65.7776 94.7258 64.2727 79.0225L60.2909 79.4041C61.8745 95.929 68.3049 109.122 74.3957 121.241C80.5354 133.457 86.2302 144.427 87.0525 156.97L91.0439 156.708ZM64.2727 79.0225C62.2234 57.6392 67.3534 42.9153 75.7976 32.9354C84.2775 22.9133 96.3054 17.4327 108.464 14.9713L107.67 11.0508C94.933 13.6294 81.9779 19.4384 72.744 30.3517C63.4743 41.3072 58.1595 57.1645 60.2909 79.4041L64.2727 79.0225ZM108.464 14.9713C127.157 11.1869 146.221 19.363 161.616 34.7114C176.997 50.0461 188.477 72.3378 191.914 96.1377L195.873 95.5661C192.314 70.9222 180.443 47.8335 164.44 31.8787C148.451 15.9375 128.099 6.9151 107.67 11.0508L108.464 14.9713ZM191.914 96.1377C197.708 136.258 199.7 158.123 223.385 181.043L226.167 178.168C203.631 156.361 201.71 135.981 195.873 95.566L191.914 96.1377ZM223.385 181.043C231.811 189.194 249.705 195.701 269.137 194.734L268.938 190.739C250.291 191.667 233.592 185.351 226.167 178.168L223.385 181.043ZM269.137 194.734C297.452 193.323 314.176 179.058 327.699 163.912C331.067 160.139 334.253 156.293 337.354 152.595C340.465 148.884 343.492 145.318 346.59 142.038C352.791 135.473 359.151 130.193 366.716 127.349L365.308 123.605C356.909 126.763 350.05 132.549 343.682 139.292C340.494 142.666 337.399 146.314 334.288 150.026C331.166 153.75 328.031 157.534 324.715 161.248C311.504 176.044 295.705 189.405 268.938 190.739L269.137 194.734ZM366.716 127.349C379.736 122.453 389.809 123.88 396.993 128.477C404.239 133.115 408.871 141.186 410.526 150.159C412.181 159.133 410.813 168.79 406.324 176.407C401.872 183.963 394.316 189.586 383.316 190.615L383.688 194.597C396.025 193.444 404.696 187.049 409.77 178.438C414.808 169.89 416.267 159.233 414.46 149.434C412.652 139.635 407.533 130.474 399.149 125.108C390.702 119.703 379.266 118.356 365.308 123.605L366.716 127.349ZM383.316 190.615C364.682 192.356 352.886 180.403 342.128 164.768C339.453 160.88 336.872 156.81 334.277 152.711C331.688 148.624 329.084 144.506 326.392 140.579C321.022 132.744 315.192 125.493 308.163 120.531L305.856 123.798C312.287 128.339 317.792 135.107 323.093 142.84C325.736 146.697 328.3 150.751 330.897 154.851C333.487 158.94 336.108 163.074 338.833 167.035C349.677 182.795 362.667 196.562 383.688 194.597L383.316 190.615ZM308.163 120.531C292.488 109.464 268.385 111.658 253.246 132.078L256.46 134.46C270.362 115.707 292.034 114.04 305.856 123.798L308.163 120.531ZM253.246 132.078C242.61 146.427 224.413 176.174 188.641 176.568L188.685 180.568C226.832 180.147 246.222 148.273 256.46 134.46L253.246 132.078ZM188.641 176.568C152.328 176.967 130.485 146.576 133.849 114.681L129.871 114.262C126.296 148.162 149.618 180.997 188.685 180.568L188.641 176.568Z" fill="#1E1E48"/>
<path d="M29.6443 108.067L28.3036 109.551L31.2719 112.232L32.6126 110.748L29.6443 108.067ZM101.934 86.6654L102.153 84.6773L101.934 86.6654ZM171.564 129.983L173.552 129.757V129.757L171.564 129.983ZM139.313 159.262L139.809 157.324L139.809 157.324L139.313 159.262ZM121.772 93.8317L123.625 94.5854V94.5854L121.772 93.8317ZM191.207 53.3126L191.439 51.3261L191.207 53.3126ZM244.559 127.603L242.628 128.128L242.628 128.128L244.559 127.603ZM289.51 168.211L289.467 166.212L289.467 166.212L289.51 168.211ZM329.216 114.56L327.234 114.825V114.825L329.216 114.56ZM274.792 71.5202L273.624 73.1434L273.624 73.1434L274.792 71.5202ZM252.259 18.3815L254.116 19.1234L254.116 19.1233L252.259 18.3815ZM267.721 11.209L267.1 13.11L267.1 13.11L267.721 11.209ZM272.515 31.3965L274.055 32.6726L274.055 32.6724L272.515 31.3965ZM214.117 30.8989L214.227 28.9019L214.227 28.9019L214.117 30.8989ZM129.567 45.7666L129.981 47.7232L129.981 47.7232L129.567 45.7666ZM58.6078 13.6177C57.5711 13.2367 56.4217 13.7683 56.0407 14.805L49.8315 31.7002C49.4505 32.737 49.9821 33.8863 51.0188 34.2673C52.0556 34.6484 53.2049 34.1168 53.586 33.08L59.1052 18.0621L74.1232 23.5814C75.1599 23.9624 76.3093 23.4308 76.6903 22.394C77.0713 21.3573 76.5397 20.2079 75.503 19.8269L58.6078 13.6177ZM32.6126 110.748C37.0167 105.872 47.0364 99.5233 59.7466 94.7915C72.404 90.0794 87.4284 87.0861 101.716 88.6535L102.153 84.6773C87.0666 83.0224 71.3981 86.1857 58.3511 91.0429C45.3568 95.8804 34.6605 102.513 29.6443 108.067L32.6126 110.748ZM101.716 88.6535C121.846 90.8616 138.18 95.058 149.799 101.83C161.329 108.55 168.164 117.761 169.577 130.208L173.552 129.757C171.971 115.838 164.23 105.611 151.813 98.3739C139.485 91.1887 122.502 86.9095 102.153 84.6773L101.716 88.6535ZM169.577 130.208C170.507 138.395 167.626 146.378 162.251 151.697C156.92 156.974 149.078 159.696 139.809 157.324L138.817 161.2C149.473 163.926 158.753 160.788 165.065 154.54C171.333 148.336 174.616 139.13 173.552 129.757L169.577 130.208ZM139.809 157.324C130.943 155.057 124.411 145.651 121.351 133.178C118.318 120.818 118.912 106.17 123.625 94.5854L119.919 93.078C114.85 105.539 114.259 121.06 117.466 134.131C120.645 147.088 127.774 158.375 138.817 161.2L139.809 157.324ZM123.625 94.5854C134.454 67.9652 162.544 51.9815 190.976 55.2992L191.439 51.3261C161.284 47.8073 131.45 64.7353 119.919 93.078L123.625 94.5854ZM190.976 55.2992C209.968 57.5154 221.583 70.7102 229.157 86.0827C236.757 101.508 240.038 118.593 242.628 128.128L246.489 127.079C244.003 117.93 240.571 100.199 232.745 84.3149C224.893 68.3777 212.37 53.7687 191.439 51.3261L190.976 55.2992ZM242.628 128.128C245.615 139.119 250.365 149.767 257.885 157.618C265.465 165.533 275.769 170.505 289.553 170.211L289.467 166.212C276.824 166.481 267.593 161.971 260.774 154.852C253.894 147.669 249.383 137.731 246.489 127.079L242.628 128.128ZM289.552 170.211C303.753 169.909 315.328 164.082 322.771 154.12C330.19 144.188 333.346 130.362 331.199 114.296L327.234 114.825C329.276 130.105 326.224 142.814 319.566 151.726C312.931 160.608 302.558 165.934 289.467 166.212L289.552 170.211ZM331.199 114.296C330.108 106.132 327.151 99.9789 322.981 95.1774C318.836 90.4036 313.576 87.0625 308.025 84.3752C302.508 81.705 296.513 79.5983 290.991 77.4326C285.392 75.237 280.217 72.9608 275.961 69.897L273.624 73.1434C278.317 76.5216 283.898 78.9476 289.531 81.1564C295.239 83.3951 300.95 85.395 306.282 87.9756C311.578 90.539 316.308 93.5929 319.961 97.8001C323.59 101.98 326.241 107.394 327.234 114.825L331.199 114.296ZM275.961 69.8971C269.904 65.5372 262.561 57.2883 257.688 47.7933C252.798 38.2665 250.605 27.9123 254.116 19.1234L250.401 17.6395C246.268 27.9854 249.007 39.6407 254.129 49.6197C259.267 59.6306 267.012 68.3837 273.624 73.1434L275.961 69.8971ZM254.116 19.1233C254.783 17.4536 256.366 15.3529 258.645 13.9799C260.86 12.6456 263.713 12.003 267.1 13.11L268.342 9.30797C263.741 7.80406 259.688 8.68189 256.581 10.5536C253.539 12.3867 251.385 15.1777 250.401 17.6396L254.116 19.1233ZM267.1 13.11C270.616 14.2593 272.587 17.1709 273.179 20.6054C273.782 24.1062 272.878 27.8232 270.975 30.1207L274.055 32.6724C276.814 29.3428 277.891 24.3969 277.12 19.9262C276.339 15.3891 273.582 11.0206 268.342 9.30796L267.1 13.11ZM270.975 30.1205C269.106 32.3766 265.705 33.7306 260.94 34.2555C256.234 34.774 250.59 34.441 244.722 33.7136C238.869 32.9879 232.91 31.886 227.573 30.9105C222.303 29.9472 217.527 29.0836 214.227 28.9019L214.007 32.8959C216.995 33.0604 221.477 33.8625 226.854 34.8453C232.164 35.816 238.241 36.9407 244.23 37.6832C250.205 38.4239 256.211 38.8007 261.378 38.2315C266.486 37.6688 271.184 36.1378 274.055 32.6726L270.975 30.1205ZM214.227 28.9019C196.563 27.93 183.601 29.9047 170.86 33.011C164.524 34.5559 158.217 36.3875 151.476 38.2545C144.718 40.1264 137.469 42.0495 129.152 43.8099L129.981 47.7232C138.415 45.9378 145.755 43.9898 152.544 42.1094C159.35 40.2242 165.552 38.4225 171.808 36.8972C184.252 33.8631 196.814 31.9499 214.007 32.8959L214.227 28.9019ZM129.152 43.8099C115.175 46.7683 101.106 46.6199 88.9182 42.1846C76.7827 37.7683 66.3978 29.0652 59.7332 14.6554L56.1027 16.3345C63.2191 31.7212 74.4241 41.1667 87.5503 45.9435C100.624 50.7013 115.489 50.7905 129.981 47.7232L129.152 43.8099Z" fill="#1E1E48"/>
<path d="M418.633 24.3579L417.813 20.2559H399.357V55.1229H403.458V40.7659H414.942L415.762 44.8679H430.116V24.3579H418.633Z" fill="#395873"/>
</svg>
