<svg width="30" height="30" viewBox="0 0 60 60" fill="none" xmlns="http://www.w3.org/2000/svg">
<path d="M10.4211 47.9147C13.5747 45.8905 16.7042 44.3389 19.8095 43.26C22.9147 42.181 26.3116 41.6416 30 41.6416C33.6884 41.6416 37.0932 42.181 40.2142 43.26C43.3358 44.3389 46.4734 45.8905 49.6271 47.9147C51.9229 45.2553 53.6284 42.4476 54.7437 39.4918C55.8589 36.5366 56.4166 33.3726 56.4166 30C56.4166 22.5505 53.8763 16.2853 48.7958 11.2042C43.7147 6.12368 37.4495 3.58342 30 3.58342C22.5505 3.58342 16.2853 6.12368 11.2042 11.2042C6.12368 16.2853 3.58342 22.5505 3.58342 30C3.58342 33.3726 4.14921 36.5366 5.28079 39.4918C6.41237 42.4476 8.12579 45.2553 10.4211 47.9147ZM29.985 31.7913C27.145 31.7913 24.7563 30.8179 22.8189 28.8711C20.8816 26.9237 19.9129 24.53 19.9129 21.69C19.9129 18.8495 20.8863 16.4605 22.8332 14.5232C24.7805 12.5858 27.1745 11.6171 30.015 11.6171C32.855 11.6171 35.2437 12.5908 37.1811 14.5382C39.1184 16.485 40.0871 18.8787 40.0871 21.7192C40.0871 24.5597 39.1137 26.9484 37.1668 28.8853C35.2195 30.8226 32.8255 31.7913 29.985 31.7913ZM29.9684 60C25.8147 60 21.9095 59.2166 18.2526 57.6497C14.5963 56.0829 11.4155 53.9361 8.71026 51.2092C6.00447 48.4829 3.87632 45.3039 2.32579 41.6724C0.775264 38.0413 0 34.1374 0 29.9605C0 25.8042 0.783421 21.9053 2.35026 18.2637C3.91711 14.6221 6.06395 11.4513 8.79079 8.75131C11.5171 6.05079 14.6961 3.91711 18.3276 2.35026C21.9587 0.783423 25.8626 0 30.0395 0C34.1958 0 38.0947 0.783423 41.7363 2.35026C45.3779 3.91711 48.5487 6.05079 51.2487 8.75131C53.9492 11.4513 56.0829 14.6263 57.6497 18.2763C59.2166 21.9263 60 25.8271 60 29.9787C60 34.1513 59.2166 38.0513 57.6497 41.6787C56.0829 45.306 53.9492 48.4829 51.2487 51.2092C48.5487 53.9361 45.3703 56.0829 41.7134 57.6497C38.0571 59.2166 34.1421 60 29.9684 60Z" fill="#3C4043"/>
</svg>
